<svg xmlns="http://www.w3.org/2000/svg" width="97.894" height="86.405" viewBox="0 0 97.894 86.405">
  <defs>
    <style>
      .cls-1 {
        fill: none;
        stroke: #707070;
      }
    </style>
  </defs>
  <path id="logo" class="cls-1" d="M46.362,85.405c-3.827,0-22.141-28.912-29.838-41.343a3.1,3.1,0,0,0,1.1.2,2.739,2.739,0,0,0,2.46-1.332v1.224h1.1V37.577h-1.1v1.2a2.725,2.725,0,0,0-2.448-1.308,3.11,3.11,0,0,0-3.12,3.339c.589.961,1.244,2.025,2,3.251l0,0h0a3.289,3.289,0,0,1-2-3.221v-.032c-.786-1.283-1.24-2.033-1.245-2.04l0-.006a81.216,81.216,0,0,1,8-10.21,45.729,45.729,0,0,1,8-7.023c3.2-2.118,6.188-3.192,8.893-3.192,3.388,0,6.374,1.689,8.875,5.019,4.142,5.516,8.822,8.553,13.179,8.553a7.7,7.7,0,0,0,6.87-3.96c2.069-3.638,1.56-8.744-1.363-13.659a5.476,5.476,0,0,1-.148-5.845c1.331-2.341,4.4-4.51,8.645-6.11A37.028,37.028,0,0,1,86.782,0a18.928,18.928,0,0,1,6.3.93,6.11,6.11,0,0,1,3.7,2.974,5.707,5.707,0,0,1,.015,4.29,19.735,19.735,0,0,1-3.747,6.1C81.989,27.465,76.377,34.154,76.369,34.17l.15-.179c.16,10.123-.825,16.123-3.009,18.342a3.155,3.155,0,0,1-2.314,1c-2.929,0-6.794-3.637-10.532-7.154-1.441-1.356-2.932-2.759-4.348-3.933.012-.037.024-.075.036-.118h-.179l.058.047.085.071a2.954,2.954,0,0,1-2.988,2.018,3.155,3.155,0,0,1-3.252-3.407A3.765,3.765,0,0,1,50.5,39.04a5.066,5.066,0,0,1,1.075.233,2.4,2.4,0,0,0-.371,1.112h2.613a9.993,9.993,0,0,0-2.242-1.112,2,2,0,0,1,1.706-.881,2.146,2.146,0,0,1,1.547.592,1.911,1.911,0,0,1,.529,1.4h-1.54c.4.256.83.554,1.274.887h-3.9a2.076,2.076,0,0,0,2.136,2.065,1.812,1.812,0,0,0,1.849-1.212h1c-.374-.308-.738-.594-1.082-.852h1.357a5.84,5.84,0,0,0,.036-.66,3.014,3.014,0,0,0-3.156-3.144A3.085,3.085,0,0,0,50.5,39.04c-.123-.012-.246-.018-.368-.018a3.5,3.5,0,0,0-3.079,2.012c-.364.613-.7,1.257-1.009,1.912V35.273H44.952v8.879h.572c-3.436,8.645-1.608,19.3,0,28.7.662,3.858,1.287,7.5,1.524,10.788a2.226,2.226,0,0,1-.268,1.584A.555.555,0,0,1,46.362,85.405ZM37.776,37.469a3.143,3.143,0,0,0-3.252,3.384,3.155,3.155,0,0,0,3.252,3.407A2.967,2.967,0,0,0,40.8,42.125H39.624a1.812,1.812,0,0,1-1.849,1.212,2.076,2.076,0,0,1-2.136-2.065H40.9a5.837,5.837,0,0,0,.036-.66A3.014,3.014,0,0,0,37.776,37.469Zm22.729.108v6.575H61.6V40.576c0-1.34.6-1.992,1.836-1.992h.288V37.456A2.213,2.213,0,0,0,61.6,38.644V37.577Zm-35.664,0,2.58,6.575h1.272l2.58-6.575H30.108l-2.039,5.567-2.052-5.567H24.84Zm21.2,6.575h-.52c.165-.416.341-.822.52-1.206v1.205Zm-37.08,0H7.872V37.577H8.964v1.067a2.212,2.212,0,0,1,2.124-1.188v1.129H10.8c-1.235,0-1.836.651-1.836,1.992v3.575Zm-4.992,0H2.988c-1.245,0-1.824-.572-1.824-1.8V38.477H.312v-.9h.851V35.921H2.256v1.656H3.972v.9H2.256v3.875c0,.647.239.877.912.877h.8v.922ZM17.856,43.3a2.248,2.248,0,0,1-2.22-2.461,2.228,2.228,0,0,1,2.22-2.424,2.452,2.452,0,0,1,0,4.884ZM39.8,40.385H35.652a2.034,2.034,0,0,1,2.076-1.993,2.146,2.146,0,0,1,1.547.592,1.911,1.911,0,0,1,.529,1.4Z" transform="translate(0.188 0.5)"/>
</svg>
